<?xml version="1.0" encoding="UTF-8" standalone="no"?>
<svg width="160px" height="50px" viewBox="0 0 160 50" version="1.1" xmlns="http://www.w3.org/2000/svg" xmlns:xlink="http://www.w3.org/1999/xlink" xmlns:sketch="http://www.bohemiancoding.com/sketch/ns">
    <!-- Generator: Sketch 3.3.3 (12072) - http://www.bohemiancoding.com/sketch -->
    <title>Spectrum Logo</title>
    <desc>Created with Sketch.</desc>
    <defs></defs>
    <g id="Page-1" stroke="none" stroke-width="1" fill="none" fill-rule="evenodd" sketch:type="MSPage">
        <g id="Spectrum-Logo" sketch:type="MSLayerGroup" fill="#FFFFFF">
            <path d="M29.8587199,32.2441271 C29.8587199,35.0405289 29.8587199,36.5994333 29.8587199,37.2622545 C29.8587199,44.3598268 28.6706003,47.908613 29.5668319,48.7958095 C30.4630635,49.683006 33.1517584,49.683006 33.1517584,47.0214164 C33.1517584,44.3598268 33.1517582,38.1494517 34.0479898,37.2622552 C34.9442214,36.3750586 39.4253795,37.2622552 42.1140743,35.4878621 C44.8027691,33.713469 45.9845421,26.8992117 44.8027691,22.1799132 C43.9881939,18.9269841 42.1243523,16.9730638 38.5291476,16.8567342 C32.7185857,16.6687224 30.5181583,22.0104119 29.9916945,26.6366258 C29.8603735,26.1778999 29.6900161,25.7412548 29.4806221,25.3266886 C28.9190158,24.2147994 28.175081,23.218446 27.2487953,22.3375987 C26.3225097,21.4567514 25.2722487,20.6661667 24.0979811,19.9658209 C22.9237134,19.2654751 21.7202894,18.6084595 20.4876731,17.9947544 C19.2550567,17.3810493 18.0516327,16.7854032 16.8773651,16.2077984 C15.7030974,15.6301936 14.6528365,15.0201077 13.7265508,14.3775224 C12.8002651,13.734937 12.0563303,13.0382117 11.4947241,12.2873255 C10.9331178,11.5364392 10.6523189,10.6844849 10.6523189,9.73143701 C10.6523189,9.16827233 10.8091286,8.59789614 11.1227529,8.02029134 C11.4363772,7.44268654 11.9177468,6.91924005 12.5668761,6.44993615 C13.2160055,5.98063225 14.0255816,5.59797481 14.9956288,5.30195235 C15.965676,5.00592989 17.1071054,4.85792088 18.4199512,4.85792088 C19.6015125,4.85792088 20.6882408,4.95178025 21.6801688,5.13950181 C22.6720967,5.32722337 23.521787,5.60880149 24.229265,5.98424461 C24.936743,6.35968773 25.4910474,6.82537461 25.8921948,7.38131923 C26.2933421,7.93726385 26.4939128,8.58344953 26.4939128,9.31989565 C26.4939128,9.7964196 26.3990975,10.3126462 26.2094642,10.8685908 C26.019831,11.4245354 25.7280918,12.0201814 25.3342381,12.6555467 C24.91121,13.3197922 24.6121773,13.9082183 24.4371312,14.4208425 C24.2620851,14.9334668 24.1745634,15.3774938 24.1745634,15.7529369 C24.1745634,16.2583411 24.3131395,16.6373886 24.5902958,16.8900907 C24.8674522,17.1427928 25.2248326,17.269142 25.6624479,17.269142 C26.2459349,17.269142 26.8987013,17.0489334 27.6207665,16.6085098 C28.3428317,16.1680861 29.010185,15.4930206 29.6228464,14.5832931 C30.2500949,13.6446853 30.7059373,12.7421913 30.9903873,11.8757841 C31.2748372,11.0093769 31.41706,10.1646426 31.41706,9.34155572 C31.41706,7.9553042 31.0706198,6.69181265 30.3777289,5.55104317 C29.6848381,4.41027369 28.7695065,3.42836026 27.6317068,2.60527342 C26.4939071,1.78218658 25.1993146,1.14683083 23.7478906,0.699187114 C22.2964666,0.251543394 20.8122437,0.0277248918 19.2951774,0.0277248918 C16.9028805,0.0277248918 14.8169457,0.31652296 13.0373102,0.894127759 C11.2576747,1.47173256 9.77345184,2.22621751 8.584597,3.15760525 C7.39574216,4.08899299 6.50593777,5.14310594 5.91515715,6.31997572 C5.32437652,7.4968455 5.02899064,8.6917475 5.02899064,9.90471758 C5.02899064,11.2043284 5.30978956,12.3631306 5.87139584,13.3811591 C6.43300211,14.3991875 7.17693693,15.3197314 8.1032226,16.1428182 C9.02950828,16.9659051 10.0834159,17.72039 11.2649772,18.4062957 C12.4465384,19.0922014 13.6499624,19.745607 14.8752852,20.3665322 C16.100608,20.9874574 17.3040319,21.6011533 18.4855932,22.2076383 C19.6671544,22.8141233 20.7210621,23.460309 21.6473478,24.1462147 C22.5736334,24.8321204 23.3175683,25.5793854 23.8791745,26.3880321 C24.4407808,27.1966789 24.7215797,28.1136127 24.7215797,29.1388612 C24.7215797,30.2507505 24.4079602,31.2362739 23.7807116,32.095461 C23.153463,32.9546482 22.3365934,33.6802533 21.3300783,34.2722982 C20.3235631,34.8643431 19.1857805,35.3119802 17.9166962,35.6152227 C16.6476119,35.9184652 15.3785466,36.0700842 14.1094623,36.0700842 C13.0300113,36.0700842 11.9870438,35.954565 10.9805287,35.723523 C9.97401353,35.4924811 9.08420915,35.1387035 8.31108882,34.6621795 C7.53796849,34.1856556 6.91802281,33.5791796 6.45123318,32.8427335 C5.98444355,32.1062874 5.75105224,31.2326732 5.75105224,30.2218648 C5.75105224,29.759781 5.78022615,29.3338038 5.83857486,28.9439206 C5.89692356,28.5540374 5.95891813,28.1966497 6.02456042,27.871747 C6.09020271,27.5468443 6.15219728,27.2472163 6.21054598,26.9728541 C6.26889469,26.6984918 6.2980686,26.4385735 6.2980686,26.1930915 C6.2980686,25.658807 6.14125881,25.2653197 5.82763453,25.0126176 C5.51401025,24.7599155 5.12380914,24.6335663 4.65701951,24.6335663 C4.20481706,24.6335663 3.71615399,24.7526955 3.19101566,24.9909575 C2.66587732,25.2292195 2.180861,25.5829971 1.73595213,26.052301 C1.29104326,26.5216049 0.919075853,27.106421 0.620038746,27.8067668 C0.321001639,28.5071126 0.171485328,29.3193572 0.171485328,30.2435249 C0.171485328,32.0340998 0.576273389,33.5972193 1.38586166,34.9329304 C2.19544992,36.2686415 3.27123801,37.3805141 4.6132582,38.2685815 C5.95527839,39.1566488 7.48690889,39.8208844 9.20819566,40.261308 C10.9294824,40.7017317 12.7017977,40.9219402 14.5251947,40.9219402 C15.8234534,40.9219402 17.1143991,40.810031 18.3980706,40.5862091 C19.6817421,40.3623873 20.9070465,40.0338795 22.0740205,39.6006759 C23.2409946,39.1674723 24.3277229,38.6187559 25.3342381,37.9545104 C26.3407532,37.2902649 27.2123239,36.52495 27.9489763,35.6585428 C28.6856287,34.7921356 29.2654602,33.8138322 29.6884883,32.7236031 C29.7496542,32.5659661 29.8063981,32.4061409 29.8587199,32.2441271 Z M62.3542111,34.5167805 C62.5552241,34.8415264 62.7773542,35.1499132 63.0206022,35.4419421 C63.7061995,36.2650289 64.5558898,36.9220445 65.5696985,37.4130086 C66.5835072,37.9039727 67.761404,38.1494511 69.1034242,38.1494511 C69.8765445,38.1494511 70.638713,38.0303219 71.3899526,37.7920599 C72.1411922,37.5537979 72.8632465,37.24334 73.5561374,36.8606768 C74.2490283,36.4780136 74.9127348,36.0412065 75.547277,35.5502425 C76.1818191,35.0592784 76.7689441,34.5538818 77.3086697,34.0340374 C78.1242583,33.2545111 79.0739477,32.4554314 79.9389141,31.573777 C80.1859496,32.5839385 80.4907557,33.4870516 80.8533357,34.2831283 C81.4222356,35.5321986 82.129703,36.4888422 82.9757592,37.1530878 C83.8218154,37.8173333 84.7991415,38.1494511 85.9077669,38.1494511 C86.4474924,38.1494511 87.0492044,38.0483717 87.7129209,37.8462101 C88.3766374,37.6440484 89.1351592,37.3408104 89.988509,36.936487 C90.7425999,36.5791932 91.5906558,36.1429717 92.5326968,35.627812 L92.5326968,35.627812 C92.606285,36.0391189 92.7212983,36.4139713 92.8777388,36.7523764 C93.0746656,37.17836 93.3554646,37.5176977 93.720144,37.7703998 C94.0848234,38.0231019 94.566193,38.1494511 95.1642672,38.1494511 C95.4268363,38.1494511 95.6675211,38.1025214 95.8863288,38.0086606 C96.1051364,37.9147998 96.3093538,37.7523509 96.4989871,37.521309 C96.6886204,37.2902671 96.8746041,36.9906391 97.0569438,36.622416 C97.2392835,36.2541929 97.4325607,35.7885061 97.6367811,35.2253414 L101.553418,24.4169656 L101.903509,24.4169656 C102.020206,25.3266932 102.173369,26.2255772 102.363003,27.1136445 C102.552636,28.0017119 102.844375,28.8031266 103.238229,29.5179125 C103.632082,30.2326984 104.164506,30.8102946 104.835516,31.2507182 C105.506527,31.6911419 106.389037,31.9113504 107.483076,31.9113504 C108.095737,31.9113504 108.697449,31.821101 109.28823,31.6405995 C109.429318,31.5974928 109.595988,31.2725211 109.758439,30.8067047 C109.642475,31.7961886 109.584494,32.6553615 109.584494,33.3842353 C109.584494,34.2939628 109.679309,35.0556678 109.868942,35.6693729 C110.058576,36.283078 110.317494,36.7776446 110.645705,37.1530878 C110.973917,37.5285309 111.349531,37.7956691 111.772559,37.9545104 C112.195587,38.1133517 112.647783,38.1927712 113.12916,38.1927712 C113.712647,38.1927712 114.314359,38.073642 114.934314,37.83538 C115.554269,37.597118 116.166921,37.2686102 116.772289,36.8498468 C117.377657,36.4310833 117.972075,35.9365166 118.555562,35.3661318 C119.139049,34.7957471 119.693354,34.1712213 120.218492,33.4925356 C120.364364,34.1567812 120.53576,34.7596471 120.732687,35.3011516 C120.929614,35.8426561 121.170299,36.308343 121.454749,36.6982263 C121.739199,37.0881095 122.078346,37.3913475 122.472199,37.6079493 C122.866053,37.8245511 123.340129,37.9328503 123.894442,37.9328503 C124.448755,37.9328503 125.04682,37.8570408 125.688655,37.7054196 C126.330491,37.5537983 126.979611,37.3516397 127.636034,37.0989376 C128.190147,36.8856216 128.741654,36.6440123 129.290567,36.3741043 L129.290567,36.3741043 C129.336026,36.5048858 129.386816,36.6309764 129.442938,36.7523764 C129.639865,37.17836 129.920664,37.5176977 130.285343,37.7703998 C130.650023,38.0231019 131.131392,38.1494511 131.729467,38.1494511 C132.196256,38.1494511 132.622925,38.0447618 133.009485,37.83538 C133.396045,37.6259983 133.735192,37.225291 134.026935,36.633246 C135.03345,34.6260694 135.853967,32.9546505 136.488509,31.6189394 C137.123051,30.2832283 137.644535,29.1966256 138.052976,28.3590987 C138.461417,27.5215717 138.778683,26.8862159 139.004784,26.4530123 C139.230885,26.0198087 139.431456,25.6949109 139.606502,25.4783091 L139.934712,25.4783091 C139.701317,26.8068002 139.504393,28.0486319 139.343934,29.2038415 C139.270999,29.6948055 139.198064,30.1893722 139.125128,30.6875564 C139.052192,31.1857405 138.986551,31.6586473 138.928202,32.1062911 C138.869853,32.5539348 138.826092,32.9510321 138.796918,33.297595 C138.767744,33.6441579 138.753157,34.0990177 138.753157,34.0990177 C138.753157,34.5466614 138.778684,35.0087383 138.829739,35.4852622 C138.880794,35.9617862 138.982903,36.3985933 139.136068,36.7956966 C139.289234,37.1927999 139.504391,37.5176977 139.781547,37.7703998 C140.058704,38.0231019 140.430671,38.1494511 140.897461,38.1494511 C141.510122,38.1494511 142.04984,38.0447618 142.516629,37.83538 C142.983419,37.6259983 143.406441,37.218071 143.785707,36.611586 L148.22748,25.4133289 L148.55569,25.4133289 C148.438993,26.4530175 148.347824,27.4818607 148.282182,28.4998891 C148.216539,29.5179176 148.183719,30.4817811 148.183719,31.3915087 C148.183719,32.3589967 148.231126,33.2542707 148.325943,34.0773576 C148.42076,34.9004444 148.57757,35.6152196 148.796377,36.2217047 C149.015185,36.8281897 149.303277,37.3010966 149.660663,37.6404394 C150.018049,37.9797822 150.459304,38.1494511 150.984443,38.1494511 C152.049306,38.1494511 153.004752,38.008662 153.850808,37.7270797 C154.696865,37.4454973 155.47362,37.0844997 156.181098,36.6440761 C156.888576,36.2036524 158.565024,35.4052066 159.282512,34.1972677 C160.000001,32.9893289 159.840833,30.9608017 159.282512,30.5195608 C158.206279,29.6690132 158.329053,30.077461 157.614281,30.7417065 C157.30795,31.0305089 156.987037,31.3084771 156.651532,31.5756193 C156.316027,31.8427615 155.973234,32.07741 155.623141,32.2795716 C155.273049,32.4817333 154.930256,32.6477922 154.594751,32.7777533 C154.259246,32.9077144 153.938333,32.9726939 153.632002,32.9726939 C153.340258,32.9726939 153.09228,32.7272156 152.88806,32.2362515 C152.683839,31.7452874 152.58173,31.1099317 152.58173,30.3301652 C152.58173,29.3337969 152.632785,28.3915932 152.734895,27.5035258 C152.837005,26.6154584 152.953701,25.7382343 153.084985,24.8718271 C153.21627,24.0054199 153.332966,23.1245858 153.435076,22.2292984 C153.537186,21.3340109 153.588241,20.3881973 153.588241,19.391829 C153.588241,18.7420236 153.351202,18.2402369 152.877119,17.886454 C152.403036,17.5326711 151.823204,17.3557822 151.137607,17.3557822 C150.524946,17.3557822 150.007109,17.5543309 149.584081,17.9514342 C149.161053,18.3485375 148.738031,18.8358843 148.315003,19.4134891 C147.877387,20.005534 147.406958,20.6914294 146.903701,21.4711959 C146.400443,22.2509623 145.926367,22.9946174 145.481458,23.7021832 C145.036549,24.4097491 144.660935,25.0126151 144.354604,25.5107992 C144.048274,26.0089834 143.880524,26.2797316 143.851349,26.3230519 L143.610662,26.0631311 C143.610662,26.0342508 143.617956,25.9764912 143.632543,25.8898505 C143.64713,25.8032098 143.690891,25.5938312 143.763827,25.2617084 C143.865937,24.7851844 143.975339,24.3194976 144.092036,23.8646338 C144.208734,23.40977 144.321783,22.9440831 144.431187,22.4675592 C144.54059,21.9910352 144.631759,21.5000785 144.704695,20.9946743 C144.777631,20.4892701 144.814098,19.9549937 144.814098,19.391829 C144.814098,18.7420236 144.595294,18.2402369 144.157678,17.886454 C143.720063,17.5326711 143.194933,17.3557822 142.582271,17.3557822 C141.925848,17.3557822 141.360604,17.5507209 140.886521,17.9406042 C140.412437,18.3304874 139.963888,18.8214441 139.54086,19.4134891 C139.103245,20.005534 138.643756,20.6878194 138.162379,21.4603658 C137.681002,22.2329122 137.232453,22.9729573 136.816719,23.6805232 C136.400984,24.3880891 136.050897,24.994565 135.766447,25.4999692 C135.481997,26.0053734 135.325188,26.2797316 135.296013,26.3230519 L135.055326,26.0631311 C135.201198,25.1534035 135.339774,24.2725694 135.471059,23.4206023 C135.529407,23.0595993 135.584108,22.6877718 135.635163,22.3051086 C135.686219,21.9224454 135.733626,21.5506179 135.777388,21.1896149 C135.821149,20.8286119 135.85397,20.4892742 135.875851,20.1715916 C135.897731,19.8539089 135.908672,19.5723308 135.908672,19.3268488 C135.908672,18.879205 135.894085,18.5254274 135.86491,18.2655053 C135.835736,18.0055831 135.744567,17.8070344 135.591402,17.6698533 C135.438237,17.5326721 135.204845,17.4460327 134.891221,17.4099324 C134.577597,17.3738321 134.143635,17.3557822 133.589322,17.3557822 C133.224643,17.3557822 132.92561,17.3810521 132.692215,17.4315925 C132.458821,17.4821329 132.25825,17.5832122 132.090497,17.7348335 C131.922745,17.8864548 131.773229,18.0994433 131.641944,18.3738056 C131.510659,18.6481679 131.372083,19.0163854 131.226212,19.4784693 C131.08034,19.926113 130.919883,20.5037091 130.744837,21.211275 C130.569791,21.9188409 130.398394,22.6985957 130.230642,23.5505627 C130.062889,24.4025298 129.902433,25.2941939 129.749267,26.2255816 C129.596102,27.1569693 129.461173,28.0702932 129.344475,28.9655807 C129.227778,29.8608681 129.132963,30.7128224 129.060027,31.5214691 C129.026385,31.894457 129.000502,32.2444014 128.982378,32.5713046 C128.888337,32.4530911 128.798055,32.4013048 128.719126,32.4420222 C128.201281,32.7091644 127.712618,32.922153 127.253122,33.0809943 C126.793626,33.2398356 126.403425,33.3192551 126.082507,33.3192551 C125.790764,33.3192551 125.568313,33.2506655 125.415147,33.1134844 C125.261982,32.9763033 125.148933,32.7813646 125.075997,32.5286625 C125.003061,32.2759604 124.9593,31.9799423 124.944713,31.6405995 C124.930126,31.3012567 124.922833,30.9294292 124.922833,30.5251058 C124.922833,30.308504 124.966593,29.9222366 125.054117,29.366292 C125.14164,28.8103474 125.254688,28.1641617 125.393267,27.4277156 C125.531845,26.6912695 125.681361,25.8970748 125.84182,25.0451077 C126.002279,24.1931406 126.151795,23.3664561 126.290373,22.5650295 C126.428952,21.7636028 126.542001,21.0271677 126.629524,20.3557022 C126.717047,19.6842366 126.760808,19.1535701 126.760808,18.7636869 C126.760808,18.3593635 126.542003,18.0272458 126.104388,17.7673236 C125.666773,17.5074014 125.076001,17.3774423 124.332055,17.3774423 C123.675632,17.3774423 123.088507,17.4965715 122.570662,17.7348335 C122.052817,17.9730955 121.757432,18.2655035 121.684496,18.6120664 L119.518311,29.6153828 C119.401614,30.1929876 119.22657,30.7092142 118.993175,31.1640779 C118.75978,31.6189417 118.493568,32.0015992 118.194531,32.3120617 C117.895494,32.6225243 117.578228,32.8607827 117.242723,33.0268441 C116.907218,33.1929055 116.579011,33.2759349 116.258093,33.2759349 C116.039286,33.2759349 115.849655,33.2181753 115.689196,33.1026544 C115.528737,32.9871334 115.397455,32.8355144 115.295345,32.6477929 C115.193234,32.4600713 115.116653,32.2470827 115.065598,32.0088207 C115.014543,31.7705588 114.989015,31.5214704 114.989015,31.2615483 C114.989015,31.2471081 115.021836,31.0232896 115.087478,30.590086 C115.153121,30.1568824 115.244289,29.5865063 115.360987,28.8789404 C115.477684,28.1713745 115.608967,27.3663499 115.754838,26.4638424 C115.90071,25.5613349 116.053873,24.6335711 116.214332,23.6805232 C116.374791,22.7274753 116.531601,21.7816616 116.684766,20.8430538 C116.837931,19.904446 116.980154,19.0524917 117.111439,18.2871653 C117.111439,18.0416833 116.943689,17.8359147 116.608184,17.6698533 C116.272679,17.5037919 115.718374,17.4063226 114.945254,17.3774423 C114.478464,17.3918824 114.059089,17.5146216 113.687116,17.7456635 C113.315143,17.9767055 112.990584,18.2727235 112.713427,18.6337265 C112.436271,18.9947295 112.195586,19.3990468 111.991366,19.8466905 C111.787145,20.2943342 111.615749,20.7347513 111.47717,21.1679549 C111.338592,21.6011585 111.22919,22.0018658 111.148961,22.3700888 C111.068731,22.7383119 111.01403,23.0307199 110.984856,23.2473217 C110.765822,24.4759975 110.565965,25.6287418 110.38528,26.7055647 L110.38528,26.7055647 C110.347529,26.6261345 110.292701,26.595546 110.218158,26.6262929 C109.517973,26.9150953 108.83968,27.0594944 108.183257,27.0594944 C107.949862,27.0594944 107.727411,27.0161746 107.515897,26.9295339 C107.304383,26.8428932 107.114752,26.6948842 106.947,26.4855025 C106.779247,26.2761207 106.644318,25.9981526 106.542208,25.6515897 C106.440097,25.3050268 106.389043,24.8718297 106.389043,24.3519854 C106.389043,24.0487429 106.42551,23.6696954 106.498446,23.2148316 C106.571382,22.7599679 106.65161,22.290671 106.739133,21.806927 C106.826656,21.323183 106.906885,20.861106 106.979821,20.4206824 C107.052757,19.9802587 107.089224,19.637311 107.089224,19.391829 C107.089224,19.0741463 107.030876,18.7889582 106.914179,18.5362561 C106.797481,18.283554 106.640671,18.0705655 106.443745,17.897284 C106.246818,17.7240026 106.017073,17.5904335 105.754504,17.4965727 C105.491935,17.4027119 105.222076,17.3557822 104.94492,17.3557822 C104.142625,17.3557822 103.435158,17.5687708 102.822496,17.9947544 C102.209835,18.4207379 101.662824,18.9441844 101.181447,19.5651096 C100.70007,20.1860347 100.277049,20.8538802 99.9123692,21.5686662 C99.5476898,22.2834521 99.2194833,22.9296378 98.9277398,23.5072426 L98.6870526,23.5072426 C98.6578782,22.7707965 98.6432912,22.0235315 98.6432912,21.2654252 L98.6432912,19.3268488 C98.6432912,18.879205 98.632351,18.5254274 98.6104703,18.2655053 C98.5885895,18.0055831 98.5265949,17.8070344 98.4244847,17.6698533 C98.3223745,17.5326721 98.1655647,17.4460327 97.9540506,17.4099324 C97.7425366,17.3738321 97.4471507,17.3557822 97.0678841,17.3557822 C96.7323791,17.3557822 96.4515801,17.3738321 96.2254789,17.4099324 C95.9993777,17.4460327 95.8097472,17.5182322 95.6565819,17.6265331 C95.5034165,17.734834 95.3684872,17.882843 95.2517898,18.0705646 C95.1350924,18.2582862 95.0183967,18.5109845 94.9016993,18.8286671 C94.712066,19.3051911 94.5224356,19.911667 94.3328023,20.6481131 C94.143169,21.3845593 93.9535386,22.1931938 93.7639053,23.0740412 C93.574272,23.9548885 93.3955818,24.8826523 93.2278292,25.8573604 C93.0600767,26.8320685 92.9142071,27.7887121 92.7902162,28.7273199 C92.6814245,29.550869 92.5922866,30.3382782 92.5228004,31.0895653 C92.2484659,31.2620151 91.9725996,31.4276427 91.6952,31.5864493 C91.0898322,31.9330122 90.5136474,32.2326402 89.9666283,32.4853423 C89.4196092,32.7380444 88.9163592,32.9365931 88.4568632,33.0809943 C87.9973671,33.2253955 87.6144595,33.297595 87.3081288,33.297595 C86.8121648,33.297595 86.3636159,33.2217855 85.9624685,33.0701642 C85.5613212,32.918543 85.2221744,32.6730646 84.9450181,32.3337218 C84.6678618,31.994379 84.4563509,31.5575719 84.3104791,31.0232875 C84.1646074,30.489003 84.0916726,29.8319874 84.0916726,29.052221 C84.0916726,28.7489784 84.0953193,28.4168607 84.1026129,28.0558577 C84.1099065,27.6948547 84.1208467,27.3194172 84.1354339,26.9295339 C84.1500211,26.5396507 84.164608,26.1461633 84.1791952,25.74906 C84.1937824,25.3519567 84.2083693,24.9656893 84.2229565,24.5902462 C84.266718,23.723839 84.3177724,22.8430049 84.3761211,21.9477174 C84.4007946,21.9174307 84.5862737,15.1932407 84.5862737,15.1932407 L95.2508064,14.8383621 C95.6008986,14.8383621 95.9218117,14.6795231 96.2135552,14.3618405 C96.5052987,14.0441579 96.6511683,13.6326206 96.6511683,13.1272164 C96.6511683,12.7084529 96.585527,12.3618952 96.4542424,12.087533 C96.3229578,11.8131707 96.1114469,11.6687717 95.8197034,11.6543315 C95.5717214,11.6398914 84.9057319,11.4929785 84.7744473,11.4785384 C84.7744473,11.4929787 85.0224218,8.87196536 85.6037241,5.67805783 C86.0653978,3.1414377 86.4573987,1.77439307 86.0986543,1.06463584 C85.7399099,0.354878615 83.59299,0.709757229 83.5874435,0.709757229 C82.5112103,0.709757189 82.0857525,1.77439307 81.5575535,4.04566819 C81.0293545,6.31694331 80.7525984,9.40669963 80.3587446,11.3561158 C80.2128729,11.3849961 74.2600897,11.3010993 72.5859492,11.3010991 C70.9118086,11.3010989 71.0313901,12.4540215 71.3901345,13.4853875 C71.7488789,14.5167535 73.698803,14.4819922 74.0493274,14.5167533 C77.9633388,14.9049018 79.1247618,14.7972365 79.5623771,14.854997 C79.4310925,15.822485 79.3289838,19.9910861 79.2560479,20.9730142 C79.183112,21.9549424 79.1466446,22.8790962 79.1466446,23.7455034 C79.1466446,25.2449237 79.2113042,26.6425729 79.3406248,27.9384693 L79.3406248,27.9384693 C78.2452037,28.9997658 75.6403558,31.1840063 74.912738,31.7380698 C74.0593882,32.3878752 73.2096979,32.9257616 72.3636417,33.3517452 C71.5175855,33.7777287 70.7444768,33.9907173 70.0442923,33.9907173 C69.3295207,33.9907173 68.7460424,33.8354883 68.29384,33.5250258 C67.8416375,33.2145632 67.4842571,32.8246858 67.2216879,32.3553819 C66.9591187,31.886078 66.7804285,31.3698514 66.6856119,30.8066868 C66.5907952,30.2435221 66.5433876,29.7020257 66.5433876,29.1821814 C66.5433876,28.8356185 66.5579746,28.4060314 66.5871489,27.8934071 C66.6163233,27.3807829 66.6819646,26.8428965 66.7840748,26.2797318 C66.886185,25.7165671 67.0247611,25.1498009 67.1998073,24.5794161 C67.3748534,24.0090314 67.6118914,23.4964148 67.9109285,23.0415511 C68.2099656,22.5866873 68.5709928,22.2184697 68.9940209,21.9368874 C69.417049,21.6553051 69.9275925,21.514516 70.5256667,21.514516 C70.7736487,21.514516 70.9341053,21.6300352 71.0070411,21.8610772 C71.079977,22.0921191 71.1164444,22.3809171 71.1164444,22.72748 C71.1164444,22.9585219 71.1055042,23.2184402 71.0836234,23.5072426 C71.0617427,23.796045 71.0508025,24.0704032 71.0508025,24.3303253 C71.0508025,24.9656906 71.1565579,25.4638673 71.3680719,25.8248703 C71.579586,26.1858733 72.0281349,26.3663721 72.7137322,26.3663721 C73.1659347,26.3663721 73.5743695,26.2508528 73.9390489,26.0198109 C74.3037283,25.788769 74.6137011,25.481921 74.8689767,25.0992579 C75.1242523,24.7165947 75.3175294,24.2870076 75.448814,23.8104836 C75.5800986,23.3339596 75.6457399,22.8502229 75.6457399,22.3592588 C75.6457399,21.6516929 75.5035171,20.9910673 75.2190671,20.3773622 C74.9346172,19.7636571 74.5407694,19.2329907 74.0375118,18.785347 C73.5342542,18.3377033 72.9288955,17.9875356 72.2214175,17.7348335 C71.5139394,17.4821314 70.7444774,17.3557822 69.9130084,17.3557822 C68.9356676,17.3557822 68.0385698,17.5326711 67.2216879,17.886454 C66.4048061,18.2402369 65.664518,18.7167537 65.0008015,19.3160187 C64.337085,19.9152837 63.7536067,20.612009 63.2503491,21.4062156 C62.7470915,22.2004222 62.3240698,23.0343267 61.9812711,23.9079539 C61.6384725,24.7815812 61.379554,25.6732452 61.2045079,26.5829728 C61.0294618,27.4927003 60.9419401,28.3663145 60.9419401,29.2038415 C60.9419401,29.9025304 61.0044001,30.5857554 61.1293212,31.2535239 C60.9901811,31.1252268 60.8607902,31.0518788 60.7550793,31.0518788 C60.0387066,31.0518788 60.2846498,31.2182255 59.3656577,31.7380698 C58.4466656,32.2579142 57.5021601,32.6911113 56.5321129,33.0376741 C55.5620657,33.384237 54.6394407,33.5575159 53.7642101,33.5575159 C53.4870538,33.5575159 53.2281353,33.5286361 52.9874469,33.4708756 C52.7467585,33.4131151 52.5170139,33.3120358 52.2982063,33.1676346 C52.0793986,33.0232334 51.864241,32.8210747 51.652727,32.5611526 C51.4412129,32.3012304 51.2260553,31.9763326 51.0072477,31.5864493 C52.276332,31.2398865 53.4542288,30.7561497 54.5409734,30.1352245 C55.627718,29.5142994 56.56493,28.8067441 57.3526375,28.0125375 C58.140345,27.2183309 58.7566439,26.3735966 59.2015528,25.4783091 C59.6464617,24.5830217 59.8689128,23.6877477 59.8689128,22.7924602 C59.8689128,21.9693734 59.7230432,21.2257184 59.4312997,20.5614729 C59.1395561,19.8972273 58.7347681,19.3304611 58.2169233,18.8611572 C57.6990786,18.3918533 57.0900731,18.0272458 56.3898887,17.7673236 C55.6897042,17.5074014 54.9311825,17.3774423 54.1143006,17.3774423 C53.1077855,17.3774423 52.1924539,17.5543311 51.3682785,17.9081141 C50.544103,18.261897 49.8001682,18.7384138 49.1364517,19.3376788 C48.4727352,19.9369438 47.8929036,20.6300591 47.3969397,21.4170457 C46.9009757,22.2040322 46.4888941,23.0307167 46.1606827,23.8971239 C45.8324712,24.7635311 45.5881397,25.6479752 45.4276807,26.5504827 C45.2672218,27.4529902 45.1869935,28.3085544 45.1869935,29.1172012 C45.1869935,30.3157311 45.3583903,31.4600935 45.7011889,32.5503225 C46.0439876,33.6405516 46.5581778,34.6008052 47.2437751,35.4311121 C47.9293723,36.261419 48.7863561,36.9220445 49.814752,37.4130086 C50.8431479,37.9039727 52.0429251,38.1494511 53.4141197,38.1494511 C54.2893502,38.1494511 55.1536274,38.0519817 56.0069772,37.8570401 C56.860327,37.6620985 57.6844901,37.4021802 58.4794912,37.0772775 C59.2744923,36.7523748 61.2039213,35.8643157 61.8311699,35.4311121 C62.1395567,35.215259 62.2998309,34.8918951 62.3542111,34.5167805 L62.3542111,34.5167805 Z M50.5039926,27.9692174 C51.0291309,27.9692174 51.601669,27.8356483 52.221624,27.568506 C52.841579,27.3013638 53.4177638,26.9584161 53.9501957,26.5396526 C54.4826276,26.1208892 54.9311766,25.6660322 55.295856,25.1750681 C55.6605354,24.684104 55.8428723,24.2075872 55.8428723,23.7455034 C55.8428723,23.095698 55.7225299,22.5614216 55.4818415,22.1426581 C55.2411531,21.7238946 54.9457672,21.514516 54.595675,21.514516 C53.9684264,21.514516 53.4323558,21.6300352 52.9874469,21.8610772 C52.542538,22.0921191 52.1705706,22.3917471 51.8715335,22.7599701 C51.5724964,23.1281932 51.3318116,23.5469504 51.1494719,24.0162543 C50.9671322,24.4855582 50.8285561,24.958465 50.7337395,25.434989 C50.6389228,25.9115129 50.5769283,26.3735898 50.5477539,26.8212336 C50.5185796,27.2688773 50.5039926,27.6515347 50.5039926,27.9692174 Z M40.640801,30.1717398 C41.6994118,27.9983327 41.4465752,24.4050275 40.640801,23.2588175 C39.1629541,21.1565873 34.5594744,21.1849409 34.5594744,27.0609246 C34.4572465,27.6797602 34.5594744,31.5817744 34.5594744,32.2456162 C37.9971204,32.5599916 39.7578447,31.9845151 40.640801,30.1717398 Z" id="Spectrum-Copy" sketch:type="MSShapeGroup"></path>
            <path d="M43.4728101,47.61621 L42.2038101,47.61621 C42.0688101,48.16521 41.7268101,48.52521 41.1238101,48.52521 C40.7818101,48.52521 40.5118101,48.41721 40.3228101,48.19221 C40.0618101,47.91321 40.0078101,47.62521 40.0078101,46.38321 C40.0078101,45.14121 40.0618101,44.85321 40.3228101,44.57421 C40.5118101,44.34921 40.7818101,44.24121 41.1238101,44.24121 C41.7268101,44.24121 42.0688101,44.60121 42.2038101,45.15021 L43.4728101,45.15021 C43.2568101,43.84521 42.3478101,43.12521 41.1148101,43.12521 C40.4308101,43.12521 39.8548101,43.35921 39.3868101,43.82721 C39.1078101,44.10621 38.9368101,44.42121 38.8648101,44.79021 C38.7928101,45.15021 38.7568101,45.68121 38.7568101,46.38321 C38.7568101,47.08521 38.7928101,47.61621 38.8648101,47.97621 C38.9368101,48.33621 39.1078101,48.66021 39.3868101,48.93921 C39.8548101,49.40721 40.4308101,49.64121 41.1148101,49.64121 C42.3388101,49.64121 43.2568101,48.92121 43.4728101,47.61621 L43.4728101,47.61621 Z M51.3038101,49.58721 L49.8728101,46.82421 C50.4938101,46.59921 51.0428101,46.04121 51.0428101,45.14121 C51.0428101,44.07021 50.2688101,43.17921 48.9638101,43.17921 L46.4528101,43.17921 L46.4528101,49.58721 L47.7038101,49.58721 L47.7038101,47.03121 L48.6038101,47.03121 L49.8548101,49.58721 L51.3038101,49.58721 Z M49.7918101,45.14121 C49.7918101,45.63621 49.4318101,45.98721 48.8828101,45.98721 L47.7038101,45.98721 L47.7038101,44.29521 L48.8828101,44.29521 C49.4318101,44.29521 49.7918101,44.64621 49.7918101,45.14121 L49.7918101,45.14121 Z M58.4598101,49.58721 L58.4598101,48.47121 L55.4898101,48.47121 L55.4898101,46.91421 L58.0188101,46.91421 L58.0188101,45.79821 L55.4898101,45.79821 L55.4898101,44.29521 L58.4598101,44.29521 L58.4598101,43.17921 L54.2388101,43.17921 L54.2388101,49.58721 L58.4598101,49.58721 Z M66.5338101,49.58721 L64.1938101,43.17921 L63.2128101,43.17921 L60.8818101,49.58721 L62.1868101,49.58721 L62.5738101,48.45321 L64.8508101,48.45321 L65.2288101,49.58721 L66.5338101,49.58721 Z M64.5178101,47.40021 L62.9248101,47.40021 L63.7348101,45.06921 L64.5178101,47.40021 Z M72.80781,44.29521 L72.80781,43.17921 L68.20881,43.17921 L68.20881,44.29521 L69.88281,44.29521 L69.88281,49.58721 L71.13381,49.58721 L71.13381,44.29521 L72.80781,44.29521 Z M76.97581,49.58721 L76.97581,43.17921 L75.72481,43.17921 L75.72481,49.58721 L76.97581,49.58721 Z M85.27481,49.58721 L85.27481,43.17921 L84.02381,43.17921 L84.02381,47.10321 L81.48581,43.17921 L80.36981,43.17921 L80.36981,49.58721 L81.62081,49.58721 L81.62081,45.65421 L84.15881,49.58721 L85.27481,49.58721 Z M93.23181,46.95921 L93.23181,46.02321 L90.81081,46.02321 L90.81081,47.06721 L91.98981,47.06721 L91.98981,47.31021 C91.98981,47.66121 91.89081,47.94921 91.70181,48.16521 C91.47681,48.40821 91.17981,48.52521 90.81081,48.52521 C90.46881,48.52521 90.19881,48.41721 90.00981,48.19221 C89.75781,47.89521 89.70381,47.64321 89.70381,46.38321 C89.70381,45.11421 89.77581,44.88021 90.00981,44.58321 C90.20781,44.35821 90.47781,44.24121 90.81081,44.24121 C91.43181,44.24121 91.80981,44.55621 91.96281,45.17721 L93.22281,45.17721 C93.05181,44.06121 92.26881,43.12521 90.81081,43.12521 C90.12681,43.12521 89.55081,43.35921 89.08281,43.82721 C88.80381,44.10621 88.63281,44.42121 88.56081,44.79021 C88.48881,45.15021 88.45281,45.68121 88.45281,46.38321 C88.45281,47.08521 88.48881,47.61621 88.56081,47.97621 C88.63281,48.33621 88.80381,48.66021 89.08281,48.93921 C89.55081,49.40721 90.12681,49.64121 90.81081,49.64121 C91.53081,49.64121 92.12481,49.41621 92.61981,48.91221 C93.06081,48.44421 93.23181,47.89521 93.23181,46.95921 L93.23181,46.95921 Z M104.41181,44.29521 L104.41181,43.17921 L99.8128099,43.17921 L99.8128099,44.29521 L101.48681,44.29521 L101.48681,49.58721 L102.73781,49.58721 L102.73781,44.29521 L104.41181,44.29521 Z M111.66681,46.38321 C111.66681,45.27621 111.67581,44.47521 111.02781,43.82721 C110.57781,43.37721 110.02881,43.12521 109.29981,43.12521 C108.57081,43.12521 108.01281,43.37721 107.56281,43.82721 C106.91481,44.47521 106.93281,45.27621 106.93281,46.38321 C106.93281,47.49021 106.91481,48.29121 107.56281,48.93921 C108.01281,49.38921 108.57081,49.64121 109.29981,49.64121 C110.02881,49.64121 110.57781,49.38921 111.02781,48.93921 C111.67581,48.29121 111.66681,47.49021 111.66681,46.38321 L111.66681,46.38321 Z M110.41581,46.38321 C110.41581,47.61621 110.34381,47.91321 110.10081,48.18321 C109.92081,48.39021 109.64181,48.52521 109.29981,48.52521 C108.95781,48.52521 108.66981,48.39021 108.48981,48.18321 C108.24681,47.91321 108.18381,47.61621 108.18381,46.38321 C108.18381,45.15021 108.24681,44.85321 108.48981,44.58321 C108.66981,44.37621 108.95781,44.24121 109.29981,44.24121 C109.64181,44.24121 109.92081,44.37621 110.10081,44.58321 C110.34381,44.85321 110.41581,45.15021 110.41581,46.38321 L110.41581,46.38321 Z M119.40781,46.95921 L119.40781,46.02321 L116.98681,46.02321 L116.98681,47.06721 L118.16581,47.06721 L118.16581,47.31021 C118.16581,47.66121 118.06681,47.94921 117.87781,48.16521 C117.65281,48.40821 117.35581,48.52521 116.98681,48.52521 C116.64481,48.52521 116.37481,48.41721 116.18581,48.19221 C115.93381,47.89521 115.87981,47.64321 115.87981,46.38321 C115.87981,45.11421 115.95181,44.88021 116.18581,44.58321 C116.38381,44.35821 116.65381,44.24121 116.98681,44.24121 C117.60781,44.24121 117.98581,44.55621 118.13881,45.17721 L119.39881,45.17721 C119.22781,44.06121 118.44481,43.12521 116.98681,43.12521 C116.30281,43.12521 115.72681,43.35921 115.25881,43.82721 C114.97981,44.10621 114.80881,44.42121 114.73681,44.79021 C114.66481,45.15021 114.62881,45.68121 114.62881,46.38321 C114.62881,47.08521 114.66481,47.61621 114.73681,47.97621 C114.80881,48.33621 114.97981,48.66021 115.25881,48.93921 C115.72681,49.40721 116.30281,49.64121 116.98681,49.64121 C117.70681,49.64121 118.30081,49.41621 118.79581,48.91221 C119.23681,48.44421 119.40781,47.89521 119.40781,46.95921 L119.40781,46.95921 Z M126.69881,49.58721 L126.69881,48.47121 L123.72881,48.47121 L123.72881,46.91421 L126.25781,46.91421 L126.25781,45.79821 L123.72881,45.79821 L123.72881,44.29521 L126.69881,44.29521 L126.69881,43.17921 L122.47781,43.17921 L122.47781,49.58721 L126.69881,49.58721 Z M133.94481,44.29521 L133.94481,43.17921 L129.34581,43.17921 L129.34581,44.29521 L131.01981,44.29521 L131.01981,49.58721 L132.27081,49.58721 L132.27081,44.29521 L133.94481,44.29521 Z M141.53281,49.58721 L141.53281,43.17921 L140.28181,43.17921 L140.28181,45.79821 L138.11281,45.79821 L138.11281,43.17921 L136.86181,43.17921 L136.86181,49.58721 L138.11281,49.58721 L138.11281,46.90521 L140.28181,46.90521 L140.28181,49.58721 L141.53281,49.58721 Z M149.14781,49.58721 L149.14781,48.47121 L146.17781,48.47121 L146.17781,46.91421 L148.70681,46.91421 L148.70681,45.79821 L146.17781,45.79821 L146.17781,44.29521 L149.14781,44.29521 L149.14781,43.17921 L144.92681,43.17921 L144.92681,49.58721 L149.14781,49.58721 Z M157.12281,49.58721 L155.69181,46.82421 C156.31281,46.59921 156.86181,46.04121 156.86181,45.14121 C156.86181,44.07021 156.08781,43.17921 154.78281,43.17921 L152.27181,43.17921 L152.27181,49.58721 L153.52281,49.58721 L153.52281,47.03121 L154.42281,47.03121 L155.67381,49.58721 L157.12281,49.58721 Z M155.61081,45.14121 C155.61081,45.63621 155.25081,45.98721 154.70181,45.98721 L153.52281,45.98721 L153.52281,44.29521 L154.70181,44.29521 C155.25081,44.29521 155.61081,44.64621 155.61081,45.14121 L155.61081,45.14121 Z" id="CREATING-TOGETHER-Copy" sketch:type="MSShapeGroup"></path>
        </g>
    </g>
</svg>